<?xml version="1.0" encoding="utf-8"?>
<!-- Generator: Adobe Illustrator 26.5.0, SVG Export Plug-In . SVG Version: 6.00 Build 0)  -->
<svg version="1.1" id="Capa_1" xmlns="http://www.w3.org/2000/svg" xmlns:xlink="http://www.w3.org/1999/xlink" x="0px" y="0px"
	 viewBox="0 0 680 440" style="enable-background:new 0 0 680 440;" xml:space="preserve">
<style type="text/css">
	.st0{fill:#FFFFFF;}
	.st1{fill:#F7FBFF;}
	.st2{fill:#5FA5D1;}
	.st3{fill:none;stroke:#000000;}
	.st4{font-family:'Helvetica';}
	.st5{font-size:10px;}
	.st6{fill:#7B7B7B;}
	.st7{font-family:'Arial-BoldMT';}
	.st8{font-size:12px;}
</style>
<rect id="backgorund" x="40" y="20" class="st0" width="600" height="400"/>
<g transform="translate(50,20)">
	<polygon id="undefined_-_0" class="st1" points="41,380 89,380 89,380 	"/>
	<rect id="undefined_-_1" x="43.3" y="18.9" class="st2" width="48" height="360"/>
	<rect id="undefined_-_2" x="92.3" y="268.1" class="st2" width="48" height="110.8"/>
	<rect id="undefined_-_9" x="141.3" y="351.2" class="st2" width="48" height="27.7"/>
	<rect id="undefined_-_12" x="190.3" y="240.5" class="st2" width="48" height="138.5"/>
	<rect id="undefined_-_17" x="239.3" y="157.4" class="st2" width="48" height="221.5"/>
	<rect id="undefined_-_34" x="288.3" y="351.2" class="st2" width="48" height="27.7"/>
	<rect id="undefined_-_37" x="337.3" y="351.2" class="st2" width="48" height="27.7"/>
	<rect id="undefined_-_60" x="386.3" y="351.2" class="st2" width="48" height="27.7"/>
	<rect id="undefined_-_62" x="435.3" y="351.2" class="st2" width="48" height="27.7"/>
	<rect id="undefined_-_63" x="484.3" y="351.2" class="st2" width="48" height="27.7"/>
	<path class="st3" d="M40,380h501.7"/>
	<g transform="translate(73.9993278440598,0)">
		<line class="st3" x1="-9" y1="380" x2="-9" y2="386"/>
		<text transform="matrix(1 0 0 1 -11.7809 396.1)" class="st4 st5">1</text>
	</g>
	<g transform="translate(122.99949588304486,0)">
		<line class="st3" x1="-9" y1="380" x2="-9" y2="386"/>
		<text transform="matrix(1 0 0 1 -11.7809 396.1)" class="st4 st5">2</text>
	</g>
	<g transform="translate(171.9996639220299,0)">
		<line class="st3" x1="-9" y1="380" x2="-9" y2="386"/>
		<text transform="matrix(1 0 0 1 -11.7809 396.1)" class="st4 st5">9</text>
	</g>
	<g transform="translate(220.99983196101493,0)">
		<line class="st3" x1="-9" y1="380" x2="-9" y2="386"/>
		<text transform="matrix(1 0 0 1 -14.5617 396.1)" class="st4 st5">12</text>
	</g>
	<g transform="translate(270,0)">
		<line class="st3" x1="-9" y1="380" x2="-9" y2="386"/>
		<text transform="matrix(1 0 0 1 -14.5617 396.1)" class="st4 st5">17</text>
	</g>
	<g transform="translate(319.00016803898507,0)">
		<line class="st3" x1="-9" y1="380" x2="-9" y2="386"/>
		<text transform="matrix(1 0 0 1 -14.5617 396.1)" class="st4 st5">34</text>
	</g>
	<g transform="translate(368.0003360779701,0)">
		<line class="st3" x1="-9" y1="380" x2="-9" y2="386"/>
		<text transform="matrix(1 0 0 1 -14.5617 396.1)" class="st4 st5">37</text>
	</g>
	<g transform="translate(417.00050411695514,0)">
		<line class="st3" x1="-9" y1="380" x2="-9" y2="386"/>
		<text transform="matrix(1 0 0 1 -14.5617 396.1)" class="st4 st5">60</text>
	</g>
	<g transform="translate(466.0006721559402,0)">
		<line class="st3" x1="-9" y1="380" x2="-9" y2="386"/>
		<text transform="matrix(1 0 0 1 -14.5617 396.1)" class="st4 st5">62</text>
	</g>
	<g transform="translate(515.0008401949252,0)">
		<line class="st3" x1="-9" y1="380" x2="-9" y2="386"/>
		<text transform="matrix(1 0 0 1 -14.5617 396.1)" class="st4 st5">63</text>
	</g>
	<text transform="matrix(1 0 0 1 545.3947 381.963)" class="st6 st7 st8">Días </text>
	<path class="st3" d="M34,380h6V20h-6"/>
	<g transform="translate(0,360)">
		<line class="st3" x1="40" y1="20" x2="34" y2="20"/>
		<text transform="matrix(1 0 0 1 25.4385 23.2)" class="st4 st5">0</text>
	</g>
	<g transform="translate(0,332.3076923076923)">
		<line class="st3" x1="40" y1="20" x2="34" y2="20"/>
		<text transform="matrix(1 0 0 1 25.4385 23.2)" class="st4 st5">1</text>
	</g>
	<g transform="translate(0,304.6153846153846)">
		<line class="st3" x1="40" y1="20" x2="34" y2="20"/>
		<text transform="matrix(1 0 0 1 25.4385 23.2)" class="st4 st5">2</text>
	</g>
	<g transform="translate(0,276.9230769230769)">
		<line class="st3" x1="40" y1="20" x2="34" y2="20"/>
		<text transform="matrix(1 0 0 1 25.4385 23.2)" class="st4 st5">3</text>
	</g>
	<g transform="translate(0,249.23076923076923)">
		<line class="st3" x1="40" y1="20" x2="34" y2="20"/>
		<text transform="matrix(1 0 0 1 25.4385 23.2)" class="st4 st5">4</text>
	</g>
	<g transform="translate(0,221.53846153846155)">
		<line class="st3" x1="40" y1="20" x2="34" y2="20"/>
		<text transform="matrix(1 0 0 1 25.4385 23.2)" class="st4 st5">5</text>
	</g>
	<g transform="translate(0,193.84615384615384)">
		<line class="st3" x1="40" y1="20" x2="34" y2="20"/>
		<text transform="matrix(1 0 0 1 25.4385 23.2)" class="st4 st5">6</text>
	</g>
	<g transform="translate(0,166.15384615384616)">
		<line class="st3" x1="40" y1="20" x2="34" y2="20"/>
		<text transform="matrix(1 0 0 1 25.4385 23.2)" class="st4 st5">7</text>
	</g>
	<g transform="translate(0,138.46153846153845)">
		<line class="st3" x1="40" y1="20" x2="34" y2="20"/>
		<text transform="matrix(1 0 0 1 25.4385 23.2)" class="st4 st5">8</text>
	</g>
	<g transform="translate(0,110.76923076923077)">
		<line class="st3" x1="40" y1="20" x2="34" y2="20"/>
		<text transform="matrix(1 0 0 1 25.4385 23.2)" class="st4 st5">9</text>
	</g>
	<g transform="translate(0,83.07692307692307)">
		<line class="st3" x1="40" y1="20" x2="34" y2="20"/>
		<text transform="matrix(1 0 0 1 19.877 23.2)" class="st4 st5">10</text>
	</g>
	<g transform="translate(0,55.38461538461539)">
		<line class="st3" x1="40" y1="20" x2="34" y2="20"/>
		<text transform="matrix(1 0 0 1 20.6143 23.2)" class="st4 st5">11</text>
	</g>
	<g transform="translate(0,27.692307692307672)">
		<line class="st3" x1="40" y1="20" x2="34" y2="20"/>
		<text transform="matrix(1 0 0 1 19.877 23.2)" class="st4 st5">12</text>
	</g>
	<g transform="translate(0,0)">
		<line class="st3" x1="40" y1="20" x2="34" y2="20"/>
		<text transform="matrix(1 0 0 1 19.877 23.2)" class="st4 st5">13</text>
	</g>
	<text transform="matrix(1 0 0 1 28.5045 10.8815)" class="st6 st7 st8">Muertes </text>
</g>
</svg>
