<?xml version="1.0" encoding="utf-8"?>
<!-- Generator: Adobe Illustrator 26.5.0, SVG Export Plug-In . SVG Version: 6.00 Build 0)  -->
<svg version="1.1" id="Capa_1" xmlns="http://www.w3.org/2000/svg" xmlns:xlink="http://www.w3.org/1999/xlink" x="0px" y="0px"
	 viewBox="0 0 680 440" style="enable-background:new 0 0 680 440;" xml:space="preserve">
<style type="text/css">
	.st0{fill:none;stroke:#000000;}
	.st1{fill:none;}
	.st2{font-family:'Helvetica';}
	.st3{font-size:10px;}
	.st4{fill:#7B7B7B;}
	.st5{font-family:'Arial-BoldMT';}
	.st6{font-size:12px;}
	.st7{font-size:7.9755px;}
	.st8{fill:none;stroke:#1F77B4;}
</style>
<path class="st0" d="M53.3,330.3v-6h535v6"/>
<g transform="translate(66.875,0)">
	<line class="st0" x1="53.3" y1="324.3" x2="53.3" y2="330.3"/>
	<rect x="33.5" y="331.8" class="st1" width="46.9" height="13.4"/>
	<text transform="matrix(1 0 0 1 33.5029 340.3862)" class="st2 st3">Mendoza</text>
</g>
<g transform="translate(133.75,0)">
	<line class="st0" x1="118.4" y1="325.3" x2="118.4" y2="331.3"/>
	<text transform="matrix(1 0 0 1 100.3455 341.6856)" class="st2 st3">Malargüe</text>
</g>
<g transform="translate(401.25,0)">
	<line class="st0" x1="-5.7" y1="325.3" x2="-5.7" y2="331.3"/>
	<text transform="matrix(1 0 0 1 -27.4156 342.6271)" class="st2 st3">Cordillera</text>
</g>
<text transform="matrix(1 0 0 1 508.8446 342.2416)" class="st2 st3">Glaciar de las lágrimas</text>
<text transform="matrix(1 0 0 1 613.1186 327.5928)" class="st4 st5 st6">Locación</text>
<path class="st0" d="M53.3,324.3V115.5"/>
<g transform="translate(0,370)">
	<line class="st0" x1="53.3" y1="-44.1" x2="47.3" y2="-44.1"/>
	<text transform="matrix(1.2538 0 0 1 34.5549 -41.1675)" class="st2 st7">0</text>
</g>
<g transform="translate(0,333)">
	<line class="st0" x1="53.3" y1="-45.7" x2="47.3" y2="-45.7"/>
	<text transform="matrix(1 0 0 1 19.3003 -42.5138)" class="st2 st3">3,000</text>
</g>
<g transform="translate(0,296)">
	<line class="st0" x1="53.3" y1="-45.7" x2="47.3" y2="-45.7"/>
	<text transform="matrix(1 0 0 1 13.7388 -42.5138)" class="st2 st3">9,000</text>
</g>
<g transform="translate(0,259)">
	<line class="st0" x1="53.3" y1="-45.7" x2="47.3" y2="-45.7"/>
	<text transform="matrix(1 0 0 1 14.4761 -42.5138)" class="st2 st3">12,000</text>
</g>
<g transform="translate(0,222)">
	<line class="st0" x1="53.3" y1="-45.7" x2="47.3" y2="-45.7"/>
	<text transform="matrix(1 0 0 1 13.7388 -42.5138)" class="st2 st3">15,000</text>
</g>
<g transform="translate(0,185)">
	<line class="st0" x1="53.3" y1="-45.7" x2="47.3" y2="-45.7"/>
	<text transform="matrix(1 0 0 1 13.7388 -42.5138)" class="st2 st3">18,000</text>
</g>
<text transform="matrix(1 0 0 1 28.6555 95.4661)" class="st4 st5 st6">Pies</text>
<path class="st8" d="M56.5,139.9c21.8-1.3,52.7-2.5,89.6-1.8c24.9,0.4,49.6,0.9,67.8,3.2c95.8,12.1,87.1,86.2,166.5,92.1
	c14.7,1.1,52.5,1.3,77.5,1.1c17.3-0.2,21.3-0.5,42.7-0.6c22.6-0.1,33.2,0.2,59.5,0.2c15,0,27.2-0.2,35-0.3"/>
</svg>
